<svg width="26" height="20" viewBox="0 0 26 20" fill="none" xmlns="http://www.w3.org/2000/svg">
<path d="M1.84988 10.9244H22.7877L15.8568 17.8549C15.4893 18.2224 15.4893 18.818 15.8568 19.1852C16.0403 19.3693 16.2812 19.4609 16.522 19.4609C16.7629 19.4609 17.0038 19.369 17.1872 19.1852L25.7243 10.6482C26.0919 10.2806 26.0919 9.68498 25.7243 9.31777L17.1881 0.780693C16.8212 0.41315 16.2246 0.41315 15.8577 0.780693C15.4901 1.14824 15.4901 1.74387 15.8577 2.11107L22.7885 9.04189H1.84988C1.3304 9.04189 0.909058 9.46357 0.909058 9.98271C0.909058 10.5022 1.33009 10.9239 1.84988 10.9239V10.9244Z" fill="#14887C"/>
</svg>
